<?xml version="1.0" standalone="no"?>
<!DOCTYPE svg PUBLIC "-//W3C//DTD SVG 20010904//EN"
 "http://www.w3.org/TR/2001/REC-SVG-20010904/DTD/svg10.dtd">
<svg version="1.0" xmlns="http://www.w3.org/2000/svg"
 width="284.000000pt" height="300.000000pt" viewBox="0 0 284.000000 300.000000"
 preserveAspectRatio="xMidYMid meet">

<g transform="translate(0.000000,300.000000) scale(0.100000,-0.100000)" stroke="none">
<path d="M0 1500 l0 -1500 1420 0 1420 0 0 1500 0 1500 -1420 0 -1420 0 0
-1500z m720 50 c11 -11 20 -31 20 -45 0 -31 -33 -65 -62 -65 -28 0 -68 37 -68
64 0 27 39 66 67 66 13 0 32 -9 43 -20z m-210 -36 c19 -11 45 -36 58 -55 20
-28 23 -44 20 -94 -6 -106 -60 -154 -180 -163 l-68 -5 0 -93 0 -94 -55 0 -55
0 0 266 0 266 123 -3 c101 -3 128 -8 157 -25z m1008 -124 c12 -16 22 -32 22
-35 0 -9 -70 -36 -79 -31 -4 3 -6 -19 -3 -49 4 -50 2 -57 -25 -84 -19 -18 -45
-32 -69 -36 -114 -17 -124 -41 -19 -47 69 -3 78 -6 108 -36 27 -28 32 -39 32
-81 0 -57 -19 -84 -80 -112 -46 -21 -138 -25 -197 -7 -52 15 -90 61 -86 102 3
30 5 31 55 34 47 3 51 1 46 -16 -11 -44 87 -70 135 -36 24 17 29 46 9 62 -7 6
-52 14 -101 18 -94 7 -126 24 -126 64 0 22 33 60 53 60 6 0 -2 12 -20 26 -55
43 -57 122 -4 174 42 43 99 54 192 39 69 -11 80 -10 101 4 31 21 31 21 56 -13z
m-788 -180 l0 -200 -55 0 -55 0 2 193 3 192 40 6 c22 3 46 7 53 8 9 1 12 -45
12 -199z m140 193 c0 -5 4 -14 9 -22 7 -11 13 -10 36 5 16 10 47 18 76 18 40
1 53 -4 76 -27 l28 -27 3 -170 3 -170 -55 0 -56 0 0 149 c0 167 -3 175 -66
145 l-34 -16 0 -139 0 -139 -49 0 -49 0 -4 173 c-3 94 -7 178 -9 186 -2 8 10
18 31 26 41 16 60 18 60 8z m-185 -455 c2 -7 6 -149 7 -316 l3 -302 -33 0
c-18 0 -35 6 -38 14 -4 11 -12 10 -42 -5 -99 -51 -210 3 -241 116 -32 118 6
242 93 296 38 24 125 22 154 -4 10 -9 22 -17 25 -17 4 0 7 52 7 115 l0 115 30
0 c17 0 33 -6 35 -12z m-387 -320 l2 -298 -35 0 -35 0 0 301 0 300 33 -3 32
-3 3 -297z m1330 200 l-3 -63 128 1 127 0 0 -218 0 -218 -40 0 -40 0 0 190 0
190 -90 0 -90 0 0 -153 c0 -177 5 -192 63 -185 29 3 37 0 41 -16 8 -31 -8 -40
-70 -40 -49 -1 -59 2 -80 27 -23 27 -24 33 -24 198 l0 169 -30 0 c-25 0 -30 4
-30 25 0 21 5 25 30 25 29 0 30 2 30 43 0 50 15 74 50 80 14 2 27 5 28 6 2 0
2 -27 0 -61z m472 -68 c34 0 50 -4 50 -12 0 -26 -17 -37 -60 -40 l-45 -3 -3
-141 c-1 -81 2 -153 8 -169 9 -24 14 -27 50 -23 32 3 41 0 46 -15 8 -26 -6
-38 -53 -44 -49 -6 -100 17 -113 53 -6 14 -10 97 -10 185 l0 159 -25 0 c-20 0
-25 5 -25 25 0 20 5 25 23 25 21 0 25 6 33 57 8 54 11 58 39 63 l30 5 3 -62 3
-63 49 0z m575 87 c8 -12 15 -31 15 -43 0 -23 -42 -64 -65 -64 -26 0 -65 41
-65 69 0 62 80 88 115 38z m-1664 -101 c45 -31 65 -73 75 -153 l7 -63 -138 0
-138 0 6 -47 c7 -66 48 -103 115 -103 29 0 59 8 79 20 32 19 33 19 43 0 5 -10
10 -24 10 -30 0 -20 -83 -50 -138 -50 -128 0 -195 78 -195 230 0 138 67 219
183 220 43 0 64 -6 91 -24z m187 -8 l3 -27 47 30 c52 33 106 38 153 13 50 -26
59 -63 59 -254 l0 -170 -40 0 -40 0 0 174 c0 150 -2 177 -17 191 -21 21 -70
15 -118 -15 l-35 -22 0 -164 0 -164 -40 0 -40 0 0 199 c0 110 -3 206 -6 214
-4 11 2 17 18 20 41 8 53 3 56 -25z m1095 -115 c26 -82 50 -163 53 -180 4 -18
9 -33 13 -33 3 0 29 78 57 173 l51 172 43 3 c32 2 41 0 38 -10 -3 -7 -40 -116
-82 -243 -84 -254 -105 -299 -155 -332 -42 -28 -47 -28 -62 -1 -10 18 -9 23 2
27 8 2 27 17 42 33 26 25 28 33 22 71 -4 23 -36 130 -71 238 -35 107 -64 200
-64 206 0 11 19 20 51 22 12 1 27 -36 62 -146z"/>
<path d="M340 1369 l0 -82 52 5 c60 6 78 24 78 80 0 53 -27 78 -85 78 l-45 0
0 -81z"/>
<path d="M1256 1314 c-23 -22 -20 -71 3 -84 55 -29 112 10 92 62 -15 39 -66
51 -95 22z"/>
<path d="M463 696 c-36 -27 -56 -95 -51 -181 3 -73 5 -79 37 -107 29 -26 39
-30 74 -25 22 3 52 14 66 25 25 18 26 23 29 139 2 109 1 121 -18 138 -27 25
-108 31 -137 11z"/>
<path d="M2620 853 c31 -11 41 -25 29 -39 -12 -15 -3 -38 12 -29 26 17 -5 76
-39 74 -14 0 -14 -2 -2 -6z"/>
<path d="M2588 837 c-19 -46 2 -81 43 -75 l21 3 -23 20 c-12 11 -19 15 -16 8
4 -6 3 -14 -2 -18 -6 -3 -11 13 -13 37 -2 31 -5 38 -10 25z"/>
<path d="M878 709 c-27 -11 -58 -62 -58 -98 0 -20 5 -21 95 -21 86 0 95 2 95
19 0 43 -23 83 -56 97 -38 16 -39 16 -76 3z"/>
</g>
</svg>
