<svg width="65" height="64" viewBox="0 0 65 64" xmlns="http://www.w3.org/2000/svg">
<path d="M28.25 32C34.8774 32 40.25 26.6274 40.25 20C40.25 13.3726 34.8774 8 28.25 8C21.6226 8 16.25 13.3726 16.25 20C16.25 26.6274 21.6226 32 28.25 32Z" fill="black"/>
<path d="M60.25 32C60.2559 30.3284 59.8127 28.6858 58.9667 27.244C58.1208 25.8022 56.9031 24.6141 55.4409 23.8038C53.9788 22.9935 52.3259 22.5907 50.6549 22.6376C48.9839 22.6845 47.3561 23.1794 45.9418 24.0704C44.5274 24.9615 43.3783 26.2161 42.6145 27.7031C41.8508 29.19 41.5004 30.8549 41.6 32.5235C41.6997 34.1922 42.2456 35.8035 43.1809 37.1891C44.1161 38.5746 45.4064 39.6836 46.9167 40.4V54.6667L50.9167 58.6667L57.5834 52L53.5834 48L57.5834 44L54.2767 40.6933C56.0329 40.0157 57.5431 38.8228 58.6092 37.2714C59.6752 35.7199 60.2472 33.8824 60.25 32ZM50.9167 32C50.3893 32 49.8737 31.8436 49.4352 31.5506C48.9967 31.2576 48.6549 30.8411 48.453 30.3538C48.2512 29.8666 48.1984 29.3304 48.3013 28.8131C48.4042 28.2958 48.6582 27.8207 49.0311 27.4477C49.404 27.0748 49.8792 26.8208 50.3965 26.7179C50.9138 26.615 51.4499 26.6678 51.9372 26.8697C52.4245 27.0715 52.841 27.4133 53.134 27.8518C53.427 28.2903 53.5834 28.8059 53.5834 29.3333C53.5834 30.0406 53.3024 30.7189 52.8023 31.219C52.3022 31.7191 51.624 32 50.9167 32Z" fill="black"/>
<path d="M38.7567 37.3867C36.7089 36.4737 34.4921 36.0012 32.25 36H24.25C20.0065 36 15.9369 37.6857 12.9363 40.6863C9.93571 43.6869 8.25 47.7565 8.25 52V57.3333H42.9167V42.64C41.1183 41.2584 39.6892 39.4538 38.7567 37.3867Z" fill="black"/>
</svg>
