<svg xmlns="http://www.w3.org/2000/svg" width="72" height="72.5" viewBox="0 0 72 72.500002" fill="#fff">
    <path d="M35.9492188 1.2998045l-30.1992186 17.5v34.900391l30.1992186 17.5 30.300781-17.5v-34.900391zm.701172 8.400391l13.699218 7.90039 9.300782 5.398438v26.5l-23 13.300781-22.999999-13.300781v-26.5l9.298827-5.398438z"/>
    <path d="M50.7499998 43.1998043c-.2-.4-.5-.7-.8-1.1-.3-.5-.7-.9-.8-1.5-.2-.6 0-1.1 0-1.7 0-1.1-.3-2.2-.6-3.2-.2-.5-.3-1.1-.5-1.6-.1-.3-.2-.6-.4-.9-.1-.1-.1-.4 0-.5.3-.2.6-.5.8-.7.2-.4 0-.9-.3-1.1-.5-.2-.4.5-.8.7h-.2c-.1-.2.1-.3.2-.4 0-.1 0-.2-.1-.2-.3 0-.6-.1-.7-.2-.8-1-1.8-1.5-2.9-1.9.3.1.6.1.9.1.5.1 1.1 0 1.5-.2.4-.2.4-.7.5-1.1.1-.1 0-.2 0-.4s-.2-.4-.3-.6c0 0-.1-.1-.2-.3-.8-.9-3.9-3.5-9.7-3.1-2.5.2-5.6.9-9.2 2.7-.1 0-.2.1-.4.1-.6.3-1.4.8-1.9 1.4-.6.7-1.1 1.5-1.3 2.4-.9.6-1.5 1.5-2 2.4-.6 1.2-1.4 2.2-1.4 3.5v.2c.1.4.1.7.2 1.1.2.8.4 1.6.5 2.4l.3 1.2c.2.4 0 .9.3 1.3.1.2.1.5.4.6v.3c.1.1.1.1.2.1v.3c.6.7 1.3 1.3 1.7 2.1.2.4-.7.2-1.1.1-.7-.3-1.2-.9-1.8-1.4l-.1.1c.3.5 1.4 1.1.8 1.5-.3.2-.7-.2-.9.1-.1.1 0 .3 0 .4-.4-.3-.9-.1-1.3-.3-.3-.1-.4-.6-.7-.6-.9-.2-1.8-.4-2.8-.4h-.2c-.9-.1-1.8-.2-2.6-.1v1c.8-.2 1.6-.4 2.4-.4h.2c.2 0 .5-.1.7 0-.3 0-.7 0-1 .1-.8.1-1.6.4-2.4.7v1c.4.1.9.1 1.3.2.5.1 1 .2 1.5.4.7.2 1.2.5 1.8.8.3.2.4.4.7.6.4.2.9.2 1.2 0h.4c1.1-.3 2.2-.6 2.9-1.5 0 .1.1.1.1.1-.2.6-.2 1.2-.6 1.8 0 .1-.1.2.1.3h.1c-.1 0-.1 0-.1.1s.2 0 .3.1c-.4.1-.7.2-.9.5 0 .1.1.1.2.1-.1.1-.4.1-.4.2l.1.1c-.1 0-.1 0-.1.1v.2c-.2 0-.3.2-.4.2.3.2.5 0 .8 0-.8.3-1.4.8-2.2 1-.1 0 0 .2-.1.2.2.1.4-.1.6-.1-.4.3-.8.5-1.2.7l2.4 1.4c1-.6 1.9-1.3 2.7-2.2l.1.1c-.2.7-.6 1.2-1.2 1.7-.4.2-.7.6-1 .7l1.8 1c.4-.3.7-.5 1.2-.7.1 0 .2.1.4.1.6-.6 1.3-1.3 2.3-1.1 0 .1 0 .1.1.1 0 0 .1 0 .1-.1 0 .1 0 .1-.1.1-.3.2-.5.4-.8.6-.1.1 0 .1.1.1.4-.2.6-.4.9-.6-.1.1-.1.2-.1.3-.9.7-1.6 1.4-2.3 2.2l9.5 5.5c.3-.4.7-1 1.1-1.5 1.8-2.6 4.4-6.1 5.2-6.9.3-.2.6-.2 1-.3 1.2 0 2.5.3 3.7.4.1 0 .3.1.4.1.4.1.9 0 1.4-.1.5-.2 1.1-.5 1.3-1.1.2-.5.3-1.1 0-1.6-.5-.6.4-.9.7-1.3.2-.4-.2-.6-.2-.9-.1-.1-.4-.1-.5-.3.5-.2 1.3-.7.9-1.3-.2-.4-.6-.9-.2-1.3.5-.3 1.3-.3 1.5-.8.6-1-.2-1.7-.7-2.4zm-3.1-3.6c-.1.1.2.2.2.4-.1.1-.3.2-.4.2l-.4.4c.1 0 0 .2.2.2-.3.4.2 1.1-.3 1.2-.5.2-1.1.2-1.7 0 .3-.1.7.1.9-.2v-.3c0-.1-.1-.1-.1-.1l-.1.1c0-.1-.2-.3-.2-.3-.4.1-.8-.1-1.1-.4.2-.1.4-.2.7-.1.2 0 .1-.4.3-.5h.2c.4-.6 1.3-.8 1.4-1.3 0-.1-.4-.1-.7-.2-.4-.1-.8 0-1.2 0-.6.2-1.1.2-1.6.5.4-.3.9-.6 1.4-.8.4-.1.7-.3 1.1-.3.4-.1.9-.2 1.2-.1.4.1.9.1 1 .3-.1.6-.4 1-.8 1.3z"/>
</svg>
