<?xml version="1.0" encoding="UTF-8" standalone="no"?>
<svg
   xmlns:dc="http://purl.org/dc/elements/1.1/"
   xmlns:cc="http://creativecommons.org/ns#"
   xmlns:rdf="http://www.w3.org/1999/02/22-rdf-syntax-ns#"
   xmlns:svg="http://www.w3.org/2000/svg"
   xmlns="http://www.w3.org/2000/svg"
   xmlns:sodipodi="http://sodipodi.sourceforge.net/DTD/sodipodi-0.dtd"
   xmlns:inkscape="http://www.inkscape.org/namespaces/inkscape"
   viewBox="0 0 369.58011 345.90307"
   height="345.90308"
   width="369.58011"
   xml:space="preserve"
   id="svg2"
   version="1.1"
   inkscape:version="0.91 r13725"
   sodipodi:docname="line-logo.svg"><sodipodi:namedview
     pagecolor="#808080"
     bordercolor="#666666"
     borderopacity="1"
     objecttolerance="10"
     gridtolerance="10"
     guidetolerance="10"
     inkscape:pageopacity="1"
     inkscape:pageshadow="2"
     inkscape:window-width="1280"
     inkscape:window-height="751"
     id="namedview3425"
     showgrid="false"
     inkscape:zoom="0.73701575"
     inkscape:cx="175.26955"
     inkscape:cy="205.82195"
     inkscape:window-x="0"
     inkscape:window-y="1"
     inkscape:window-maximized="1"
     inkscape:current-layer="svg2"
     showborder="true"
     fit-margin-top="0"
     fit-margin-left="0"
     fit-margin-right="0"
     fit-margin-bottom="0" /><metadata
     id="metadata8"><rdf:RDF><cc:Work
         rdf:about=""><dc:format>image/svg+xml</dc:format><dc:type
           rdf:resource="http://purl.org/dc/dcmitype/StillImage" /><dc:title></dc:title></cc:Work></rdf:RDF></metadata><defs
     id="defs6"><clipPath
       id="clipPath18"
       clipPathUnits="userSpaceOnUse"><path
         id="path16"
         d="m 0,841.89 595.276,0 L 595.276,0 0,0 Z"
         inkscape:connector-curvature="0" /></clipPath></defs><path
     style="fill-opacity:1;fill-rule:nonzero;stroke:none"
     fill="#ffffff"
     d="M 184.78906,0 C 82.73173,0 -0.00299992,66.24804 8.1583437e-8,147.9707 8.1583437e-8,220.8147 65.73362,281.36316 152.29492,293.66016 l 0,0.002 0.0391,0.004 c 2.03333,0.288 4.08462,0.54001 6.14062,0.77734 29.472,6.13734 3.92552,43.02507 13.57618,50.56641 11.10134,8.676 95.21311,-47.55831 146.31445,-94.79297 7.396,-6.19333 14.12236,-12.9035 20.0957,-20.04883 l 0.10938,-0.11719 c 1.42533,-1.57066 2.55459,-2.9913 3.41992,-4.2793 17.48667,-22.60267 27.58984,-49.25544 27.58984,-77.80078 0,-81.72266 -82.73368,-147.9707 -184.79101,-147.9707 z m -99.54102,104.41211 0.80469,0 c 5.30133,0 9.63672,4.33733 9.63672,9.63867 l 0,61.03711 26.82812,0 c 5.30134,0 9.63672,4.336 9.63672,9.63867 l 0,0.80274 c 0,5.30267 -4.33538,9.64062 -9.63672,9.64062 l -36.46484,0 -0.18555,0 -0.61914,0 c -5.30133,0 -9.63672,-4.33662 -9.63672,-9.64062 l 0,-71.47852 c 0,-5.30134 4.33539,-9.63867 9.63672,-9.63867 z m 64.32227,0.002 0.80469,0 c 5.30133,0 9.63671,4.33539 9.63671,9.63672 l 0,71.47852 c 0,5.30267 -4.33538,9.64062 -9.63671,9.64062 l -0.80469,0 c -5.30133,0 -9.63867,-4.33795 -9.63867,-9.64062 l 0,-71.47852 c 0,-5.30133 4.33734,-9.63672 9.63867,-9.63672 z m 33.64648,0.002 0.80469,0 c 3.57067,0 6.70319,1.96771 8.36719,4.87304 l 34.83593,46.72266 0,-41.95899 c 0,-5.30133 4.33602,-9.63671 9.63868,-9.63671 l 0.80273,0 c 5.304,0 9.63867,4.33538 9.63867,9.63671 l 0,71.47852 c 0,2.62666 -1.06648,5.01577 -2.78515,6.75977 l -0.004,0.004 c -0.57334,0.69733 -1.38561,1.28938 -2.34961,1.74805 -1.34666,0.71733 -2.87795,1.12695 -4.50195,1.12695 l -0.80469,0 c -1.292,0 -2.52692,-0.25928 -3.65625,-0.72461 -1.46934,-0.55067 -2.78662,-1.45486 -3.75195,-2.76953 -0.25466,-0.308 -0.48908,-0.6308 -0.70508,-0.9668 l -35.08789,-47.92187 0,42.74414 c 0,5.30266 -4.33539,9.64062 -9.63672,9.64062 l -0.80469,0 c -5.30267,1e-5 -9.63867,-4.33796 -9.63867,-9.64062 l 0,-71.47852 c 0,-5.30133 4.33734,-9.63671 9.63867,-9.63671 z m 86.0625,0.16796 0.6211,0 0.18359,0 36.46484,0 c 5.30266,0 9.63868,4.33601 9.63868,9.63868 l 0,0.80273 c 0,5.30133 -4.33602,9.63867 -9.63868,9.63867 l -26.82617,0 0,15.25977 26.82617,0 c 5.30266,0 9.63868,4.33601 9.63868,9.63867 l 0,0.80273 c 0,5.30133 -4.33602,9.63777 -9.63868,9.63477 l -26.82617,0 0,15.25977 26.82617,0 c 5.30266,0 9.63868,4.33601 9.63868,9.63867 l 0,0.80273 c 0,5.30267 -4.33602,9.63867 -9.63868,9.63867 l -36.46484,0 -0.18359,0 -0.6211,0 c -5.3,0 -9.63476,-4.336 -9.63476,-9.63867 l 0,-71.47851 c 0,-5.30267 4.33476,-9.63868 9.63476,-9.63868 z"
     id="path22"
     inkscape:connector-curvature="0" /></svg>
