<svg xmlns="http://www.w3.org/2000/svg" viewBox="0 0 56.7 56.7" xmlns:v="https://vecta.io/nano"><linearGradient id="A" gradientUnits="userSpaceOnUse" x1="8.33" y1="48.363" x2="54.917" y2="1.776"><stop offset="0" stop-color="#ff0254"/><stop offset=".999" stop-color="#ff5b00"/></linearGradient><path d="M29.4 56.2h-2.2C12.5 56.2.4 44.1.4 29.4v-2.2C.4 12.5 12.5.4 27.2.4h24.5a4.48 4.48 0 0 1 4.5 4.5v24.5c0 14.8-12 26.8-26.8 26.8z" fill="url(#A)"/><g fill="#fff"><path d="M45.4 31.6s0-.1 0 0v-.4-.3c-.2-1.3-1.2-2.4-2.6-2.6-1.1-.2-2.1.2-2.8 1l-.1.1c-.2.2-.3.5-.5.8-.1.2-.2.5-.3.8-1.6 6-7.8 9.3-13.7 7.5-1.5-.5-2.9-1.3-4.1-2.4l-.3-.3-.3-.3c-1.1-1.2-1.9-2.6-2.4-4.1-1.8-5.9 1.6-12.1 7.5-13.7.3-.1.5-.2.8-.3s.5-.3.8-.5l.1-.1c.8-.7 1.2-1.7 1-2.8-.2-1.4-1.3-2.4-2.6-2.6h-.3-.3-.1-.2-.2-.1-.1-.1c-2.4.5-4.6 1.6-6.5 3.2-.2.1-.4.3-.5.5 0 0-.1 0-.1.1-.2.1-.3.3-.5.4l-.4.4-.1.1c-3.1 3.2-5 7.5-4.9 12.1v.1c0 1 .1 2 .3 3 0 .1.1.3.1.4s0 .2.1.3v.1c.7 2.6 1.9 5 3.6 7v.1l.4.4.2.2.3.3.3.3.2.2.4.4h.1c2 1.7 4.4 2.9 7 3.6h.1c.1 0 .2 0 .3.1.1 0 .3.1.4.1 1 .2 2 .3 3 .3h.1c4.5 0 8.9-1.8 12.1-4.9l.1-.1.4-.4c.2-.2.3-.3.4-.5 0 0 0-.1.1-.1.2-.2.3-.4.5-.5 1.5-1.9 2.6-4.1 3.2-6.5V32v-.1-.1-.2c.1.1.2.1.2 0z"/><path d="M28.7 32.3c-2.3 0-4-1.6-4-3.8 0-2.4 1.5-4.2 3.8-4.2 3.4 0 6.7-3 6.8-6.8.1-2.1 1.6-3.7 3.6-3.8 2.2-.2 4 1.2 4.4 3.2.4 2.1-.7 4.1-2.7 4.7-.6.2-1.2.2-1.8.3-3.5.5-5.9 3.1-6 6.6-.2 2.2-1.9 3.8-4.1 3.8z"/></g></svg>