<svg viewBox="0 0 1500 750" xmlns="http://www.w3.org/2000/svg"><path d="M 145.507812 616.734375 C 93.640625 616.734375 51.414062 574.609375 51.414062 520.867188 C 51.414062 467.121094 93.640625 424.894531 145.507812 424.894531 C 197.03125 424.894531 239.46875 467.121094 239.46875 520.867188 C 239.46875 574.609375 197.03125 616.734375 145.507812 616.734375 M 145.507812 375.074219 C 63.894531 375.074219 0 439.054688 0 520.867188 C 0 602.574219 63.894531 666.65625 145.507812 666.65625 C 226.910156 666.65625 290.804688 602.574219 290.804688 520.867188 C 290.804688 439.054688 226.910156 375.074219 145.507812 375.074219" fill="#fff"/><path d="M 893.976562 517.019531 C 893.496094 438.929688 830.347656 375.402344 753.089844 375.402344 C 673.589844 375.402344 611.269531 439.15625 611.269531 520.511719 C 611.269531 558.714844 625.914062 594.980469 652.265625 622.667969 C 679.09375 650.6875 714.476562 666.128906 752.128906 666.128906 C 795.101562 666.128906 855.308594 645.53125 883.929688 587.082031 L 884.679688 585.195312 L 827.0625 585.195312 L 826.714844 585.625 C 811.242188 604.109375 782.035156 616.582031 754.214844 616.582031 C 718.886719 616.582031 676.503906 593.320312 664.90625 540.808594 L 892.855469 540.808594 C 893.363281 535.375 893.976562 524.511719 893.976562 517.019531 M 666.589844 494.433594 C 673.589844 459.25 707.316406 424.894531 752.664062 424.894531 C 797.933594 424.894531 831.632812 459.25 838.554688 494.433594 Z M 666.589844 494.433594" fill="#fff"/><path d="M 451.410156 423.234375 C 400.050781 423.234375 373.941406 450.722656 373.941406 505.148438 L 373.941406 666.253906 L 321.1875 666.253906 L 321.1875 501.351562 C 321.695312 472.453125 326.828125 452.007812 338.640625 432.816406 C 352.613281 411.265625 385.804688 375 451.410156 375 C 516.855469 375 550.15625 411.265625 564.105469 432.816406 C 575.808594 452.007812 581.101562 472.453125 581.421875 501.351562 L 581.421875 666.253906 L 528.722656 666.253906 L 528.722656 505.148438 C 528.722656 450.722656 502.773438 423.234375 451.410156 423.234375" fill="#fff"/><path d="M 1168.1875 375.074219 L 1057.015625 645.933594 L 1029.546875 712.957031 L 1014.367188 750 L 959.53125 750 L 1002.074219 645.984375 L 888.445312 375.074219 L 946.382812 375.074219 L 1029.570312 578.734375 L 1112.921875 375.074219 Z M 1168.1875 375.074219" fill="#fff"/></svg>
